<?xml version="1.0" encoding="UTF-8" standalone="no" ?>
<!DOCTYPE svg PUBLIC "-//W3C//DTD SVG 1.1//EN" "http://www.w3.org/Graphics/SVG/1.1/DTD/svg11.dtd">
<svg xmlns="http://www.w3.org/2000/svg" xmlns:xlink="http://www.w3.org/1999/xlink" version="1.1" width="64" height="64" viewBox="0 0 64 64" xml:space="preserve">
<desc>Created with Fabric.js 4.6.0</desc>
<defs>
</defs>
<g transform="matrix(-0.09 -0.09 0.09 -0.09 24.9 30.83)" id="BPWnHyRklblcWEHQu4QHJ"  >
<path style="stroke: none; stroke-width: 1; stroke-dasharray: none; stroke-linecap: butt; stroke-dashoffset: 0; stroke-linejoin: miter; stroke-miterlimit: 4; fill: rgb(35,52,102); fill-rule: nonzero; opacity: 1;" vector-effect="non-scaling-stroke"  transform=" translate(-257.3, -254.7)" d="M 266.033 32.42 L 180.79500000000002 117.658 L 180.79500000000002 137.457 L 285.832 32.42 L 266.033 32.42 z M 307.56100000000004 36.148 L 184.523 159.186 L 352.81399999999996 327.476 L 475.852 204.44 L 307.56 36.15 z M 479.581 226.168 L 374.542 331.205 L 394.34099999999995 331.205 L 479.57899999999995 245.96699999999998 L 479.57899999999995 226.16799999999998 z M 239.67800000000003 239.79500000000002 L 229.77800000000002 249.69500000000002 L 262.305 282.223 L 272.205 272.32300000000004 L 239.678 239.79500000000004 z M 217.05100000000002 262.422 L 193.52300000000002 285.949 L 240.57800000000003 285.949 L 217.05100000000004 262.422 z M 175.52300000000002 303.949 L 148.26800000000003 331.20500000000004 L 213.32200000000003 331.20500000000004 L 240.57800000000003 303.94900000000007 L 175.52300000000002 303.94900000000007 z M 130.26800000000003 349.20500000000004 L 103.01400000000002 376.45900000000006 L 168.06800000000004 376.45900000000006 L 195.32200000000003 349.20500000000004 L 130.26800000000003 349.20500000000004 z M 103.01400000000002 394.45900000000006 L 126.54100000000003 417.98600000000005 L 150.06800000000004 394.45900000000006 L 103.01400000000004 394.45900000000006 z M 81.28500000000003 398.18700000000007 L 71.38700000000003 408.08600000000007 L 103.91400000000003 440.61300000000006 L 113.81200000000003 430.71500000000003 L 81.28500000000003 398.18800000000005 z M 42.51800000000002 417.08600000000007 L 35.014000000000024 439.59800000000007 L 72.40200000000002 476.98600000000005 L 94.91400000000002 469.482 L 94.91400000000002 457.06800000000004 L 54.93 417.086 L 42.518 417.086 z" stroke-linecap="round" />
</g>
</svg>