<?xml version="1.0" encoding="UTF-8" standalone="no" ?>
<!DOCTYPE svg PUBLIC "-//W3C//DTD SVG 1.1//EN" "http://www.w3.org/Graphics/SVG/1.1/DTD/svg11.dtd">
<svg xmlns="http://www.w3.org/2000/svg" xmlns:xlink="http://www.w3.org/1999/xlink" version="1.1" width="36" height="36" viewBox="0 0 64 64" xml:space="preserve">
<desc>Created with Fabric.js 4.6.0</desc>
<defs>
</defs>
<g transform="matrix(0.46 -0.46 0.46 0.46 24.1 40.86)" id="0t9S4UFM6s_nWKtoms_1W"  >
<path style="stroke: none; stroke-width: 1; stroke-dasharray: none; stroke-linecap: butt; stroke-dashoffset: 0; stroke-linejoin: miter; stroke-miterlimit: 4; fill: rgb(42,42,42); fill-rule: nonzero; opacity: 1;" vector-effect="non-scaling-stroke"  transform=" translate(0, 0)" d="M 48.23606 35.914 L 20.222060000000003 7.902000000000001 C 19.41006 7.090000000000001 18.095060000000004 7.091000000000001 17.284060000000004 7.902000000000001 L 16.527060000000002 8.657000000000002 L 3.3470600000000026 -4.522999999999998 L 12.246060000000002 -13.420999999999998 L 13.858060000000002 -11.810999999999998 C 14.670060000000001 -10.997999999999998 15.98506 -10.997999999999998 16.79606 -11.810999999999998 L 25.15306 -20.166999999999998 C 25.96406 -20.979 25.96406 -22.293 25.15306 -23.104999999999997 L 0.02505999999999986 -48.236 C -0.7869400000000002 -49.047999999999995 -2.10094 -49.047999999999995 -2.9129400000000003 -48.236 L -11.270940000000001 -39.879 C -11.660940000000002 -39.489999999999995 -11.879940000000001 -38.961999999999996 -11.879940000000001 -38.41 C -11.879940000000001 -37.86 -11.660940000000002 -37.330999999999996 -11.270940000000001 -36.940999999999995 L -9.658940000000001 -35.33 L -35.33094 -9.654 L -36.941939999999995 -11.267 C -37.331939999999996 -11.657 -37.859939999999995 -11.875 -38.41094 -11.875 L -38.41094 -11.875 C -38.96194 -11.875 -39.490939999999995 -11.656 -39.87994 -11.267 L -48.237939999999995 -2.9079999999999995 C -48.62694 -2.5179999999999993 -48.84593999999999 -1.9909999999999994 -48.84593999999999 -1.4389999999999994 C -48.84593999999999 -0.8889999999999993 -48.62693999999999 -0.3589999999999993 -48.237939999999995 0.030000000000000693 L -23.107939999999996 25.16 C -22.295939999999995 25.972 -20.980939999999997 25.972 -20.169939999999997 25.16 L -11.811939999999996 16.801000000000002 C -11.421939999999996 16.411 -11.202939999999996 15.884000000000002 -11.202939999999996 15.332000000000003 C -11.202939999999996 14.782000000000002 -11.421939999999996 14.253000000000002 -11.811939999999996 13.863000000000003 L -13.423939999999996 12.252000000000002 L -4.523939999999996 3.3530000000000033 L 8.655060000000004 16.533 L 7.899060000000004 17.286 C 7.509060000000004 17.676000000000002 7.291060000000004 18.205000000000002 7.291060000000004 18.755000000000003 C 7.291060000000004 19.308000000000003 7.510060000000005 19.834000000000003 7.899060000000004 20.225 L 35.914060000000006 48.238 C 36.30406000000001 48.628 36.832060000000006 48.845 37.38306000000001 48.845 C 37.93406000000001 48.845 38.46106000000001 48.626 38.85206000000001 48.238 L 48.23706000000001 38.852000000000004 C 49.049060000000004 38.040000000000006 49.049060000000004 36.727000000000004 48.23606000000001 35.914 z" stroke-linecap="round" />
</g>
</svg>